<svg xmlns="http://www.w3.org/2000/svg" xmlns:xlink="http://www.w3.org/1999/xlink" width="180" zoomAndPan="magnify" viewBox="0 0 135 60" height="80" preserveAspectRatio="xMidYMid meet" version="1.0"><defs><g/><clipPath id="930a8d09f1"><path d="M 79.148438 18 L 106 18 L 106 44 L 79.148438 44 Z M 79.148438 18 " clip-rule="nonzero"/></clipPath><clipPath id="07d8c64a01"><path d="M 99 14 L 127.898438 14 L 127.898438 60 L 99 60 Z M 99 14 " clip-rule="nonzero"/></clipPath></defs><g clip-path="url(#930a8d09f1)"><path fill="#689266" d="M 79.148438 18.894531 C 87.527344 23.402344 93.277344 28.125 95.632812 33.875 C 96.933594 37.035156 97.894531 40.132812 98.917969 43.09375 C 98.589844 36.246094 101.488281 29.457031 105.917969 24.222656 C 104.136719 25.152344 102.464844 25.769531 100.929688 25.769531 C 94.003906 25.769531 94.082031 18.367188 79.148438 18.894531 Z M 79.148438 18.894531 " fill-opacity="1" fill-rule="evenodd"/></g><path fill="#689266" d="M 106.925781 9.566406 C 108.058594 10.914062 108.742188 12.648438 108.742188 14.539062 C 108.742188 18.800781 105.285156 22.238281 101.027344 22.238281 C 96.765625 22.238281 93.308594 18.800781 93.308594 14.539062 C 93.308594 13.285156 93.621094 12.109375 94.128906 11.070312 L 91.867188 9.75 C 91.574219 10.636719 92.148438 11.039062 92.195312 12.074219 C 92.226562 12.722656 91.949219 13.222656 91.652344 13.640625 C 91.730469 13.761719 91.730469 13.902344 91.652344 14.027344 L 90.800781 15.3125 C 90.691406 15.46875 90.457031 15.511719 90.304688 15.402344 C 90.148438 15.292969 90.101562 15.078125 90.207031 14.90625 L 91.0625 13.636719 C 91.136719 13.496094 91.292969 13.449219 91.433594 13.480469 C 91.664062 13.125 91.867188 12.675781 91.835938 12.085938 C 91.804688 11.453125 91.125 10.042969 91.589844 9.59375 L 89.652344 8.476562 L 99.679688 0.0195312 L 111.269531 7.117188 Z M 106.925781 9.566406 " fill-opacity="1" fill-rule="evenodd"/><g clip-path="url(#07d8c64a01)"><path fill="#3f4b39" d="M 111.125 59.980469 C 103.394531 39.359375 105.097656 27.042969 127.96875 14.753906 C 105.609375 13.964844 87.3125 46.347656 111.125 59.980469 Z M 111.125 59.980469 " fill-opacity="1" fill-rule="evenodd"/></g><g fill="#373737" fill-opacity="1"><g transform="translate(25.652343, 26.250001)"><g><path d="M 1.421875 -0.9375 C 1.128906 -1.238281 0.90625 -1.566406 0.75 -1.921875 C 0.601562 -2.285156 0.53125 -2.660156 0.53125 -3.046875 C 0.53125 -3.484375 0.617188 -3.910156 0.796875 -4.328125 C 0.972656 -4.742188 1.226562 -5.117188 1.5625 -5.453125 L 2.09375 -5.96875 L 1.421875 -6.59375 L 3.109375 -8.25 L 5.953125 -5.453125 C 6.273438 -5.109375 6.519531 -4.726562 6.6875 -4.3125 C 6.863281 -3.90625 6.953125 -3.488281 6.953125 -3.0625 C 6.953125 -2.675781 6.875 -2.300781 6.71875 -1.9375 C 6.570312 -1.570312 6.347656 -1.238281 6.046875 -0.9375 C 5.742188 -0.625 5.390625 -0.382812 4.984375 -0.21875 C 4.578125 -0.0625 4.160156 0.015625 3.734375 0.015625 C 3.304688 0.015625 2.890625 -0.0625 2.484375 -0.21875 C 2.085938 -0.382812 1.734375 -0.625 1.421875 -0.9375 Z M 3.203125 -2.703125 C 3.347656 -2.535156 3.535156 -2.453125 3.765625 -2.453125 C 3.972656 -2.453125 4.15625 -2.535156 4.3125 -2.703125 C 4.457031 -2.835938 4.53125 -3.003906 4.53125 -3.203125 C 4.53125 -3.410156 4.441406 -3.601562 4.265625 -3.78125 L 3.75 -4.3125 L 3.234375 -3.78125 C 3.054688 -3.613281 2.96875 -3.425781 2.96875 -3.21875 C 2.96875 -3.019531 3.046875 -2.847656 3.203125 -2.703125 Z M 3.203125 -2.703125 "/></g></g></g><g fill="#373737" fill-opacity="1"><g transform="translate(32.96276, 26.250001)"><g><path d="M 3.359375 0 C 2.835938 0 2.363281 -0.125 1.9375 -0.375 C 1.507812 -0.632812 1.171875 -0.976562 0.921875 -1.40625 C 0.671875 -1.84375 0.546875 -2.316406 0.546875 -2.828125 L 0.546875 -9.765625 L 2.90625 -9.765625 L 2.90625 -2.984375 C 2.90625 -2.835938 2.953125 -2.71875 3.046875 -2.625 C 3.140625 -2.539062 3.253906 -2.5 3.390625 -2.5 L 4.203125 -2.5 C 4.296875 -2.5 4.34375 -2.445312 4.34375 -2.34375 L 4.34375 -0.140625 C 4.34375 -0.046875 4.296875 0 4.203125 0 Z M 3.359375 0 "/></g></g></g><g fill="#373737" fill-opacity="1"><g transform="translate(37.164812, 26.250001)"><g><path d="M 3.75 -10.71875 L 1.203125 -8.03125 L 0.078125 -9.171875 L 2.609375 -11.859375 Z M 8.78125 -2.5 C 8.882812 -2.5 8.9375 -2.445312 8.9375 -2.34375 L 8.9375 -0.140625 C 8.9375 -0.046875 8.882812 0 8.78125 0 L 8.203125 0 C 7.492188 0 6.9375 -0.234375 6.53125 -0.703125 C 5.945312 -0.234375 5.28125 0 4.53125 0 L 0 0 C -0.09375 0 -0.140625 -0.046875 -0.140625 -0.140625 L -0.140625 -2.34375 C -0.140625 -2.445312 -0.09375 -2.5 0 -2.5 L 4.5625 -2.5 C 4.78125 -2.5 4.96875 -2.566406 5.125 -2.703125 C 5.28125 -2.835938 5.359375 -3.03125 5.359375 -3.28125 C 5.359375 -3.539062 5.21875 -3.765625 4.9375 -3.953125 L 1.75 -6.0625 L 1.75 -7.84375 L 4.640625 -10.921875 L 6.265625 -9.375 L 4.203125 -7.265625 L 6.390625 -5.8125 C 6.804688 -5.550781 7.128906 -5.1875 7.359375 -4.71875 C 7.597656 -4.257812 7.71875 -3.765625 7.71875 -3.234375 L 7.71875 -2.984375 C 7.707031 -2.835938 7.742188 -2.71875 7.828125 -2.625 C 7.921875 -2.539062 8.046875 -2.5 8.203125 -2.5 Z M 8.78125 -2.5 "/></g></g></g><g fill="#373737" fill-opacity="1"><g transform="translate(45.943071, 26.250001)"><g><path d="M 6.609375 -11.578125 L 6.609375 -9.53125 L 4.5625 -9.53125 L 4.5625 -11.578125 Z M 5.203125 -8.8125 L 5.203125 -6.78125 L 3.15625 -6.78125 L 3.15625 -8.8125 Z M 5.953125 -6.78125 L 5.953125 -8.8125 L 7.984375 -8.8125 L 7.984375 -6.78125 Z M 11.171875 -2.5 C 11.265625 -2.5 11.3125 -2.445312 11.3125 -2.34375 L 11.3125 -0.140625 C 11.3125 -0.046875 11.265625 0 11.171875 0 L 10.578125 0 C 9.890625 0 9.335938 -0.222656 8.921875 -0.671875 C 8.503906 -0.203125 7.945312 0.03125 7.25 0.03125 C 6.550781 0.03125 6 -0.195312 5.59375 -0.65625 C 5.15625 -0.195312 4.597656 0.03125 3.921875 0.03125 C 3.210938 0.03125 2.65625 -0.203125 2.25 -0.671875 C 1.820312 -0.222656 1.269531 0 0.59375 0 L 0 0 C -0.09375 0 -0.140625 -0.046875 -0.140625 -0.140625 L -0.140625 -2.34375 C -0.140625 -2.445312 -0.09375 -2.5 0 -2.5 L 0.59375 -2.5 C 0.75 -2.5 0.867188 -2.539062 0.953125 -2.625 C 1.035156 -2.71875 1.078125 -2.835938 1.078125 -2.984375 L 1.078125 -5.625 L 3.4375 -5.625 L 3.4375 -2.953125 C 3.4375 -2.804688 3.476562 -2.6875 3.5625 -2.59375 C 3.65625 -2.507812 3.773438 -2.46875 3.921875 -2.46875 C 4.066406 -2.46875 4.179688 -2.507812 4.265625 -2.59375 C 4.347656 -2.6875 4.390625 -2.804688 4.390625 -2.953125 L 4.390625 -5.625 L 6.75 -5.625 L 6.75 -2.953125 C 6.75 -2.804688 6.789062 -2.6875 6.875 -2.59375 C 6.96875 -2.507812 7.09375 -2.46875 7.25 -2.46875 C 7.394531 -2.46875 7.507812 -2.507812 7.59375 -2.59375 C 7.675781 -2.6875 7.71875 -2.804688 7.71875 -2.953125 L 7.71875 -6.015625 L 10.078125 -6.015625 L 10.078125 -2.984375 C 10.078125 -2.835938 10.117188 -2.71875 10.203125 -2.625 C 10.296875 -2.539062 10.421875 -2.5 10.578125 -2.5 Z M 11.171875 -2.5 "/></g></g></g><g fill="#373737" fill-opacity="1"><g transform="translate(57.095773, 26.250001)"><g><path d="M 1.390625 -9.265625 L 3.4375 -9.265625 L 3.4375 -7.21875 L 1.390625 -7.21875 Z M 0 0 C -0.09375 0 -0.140625 -0.046875 -0.140625 -0.140625 L -0.140625 -2.34375 C -0.140625 -2.445312 -0.09375 -2.5 0 -2.5 L 0.828125 -2.5 C 0.953125 -2.5 1.054688 -2.546875 1.140625 -2.640625 C 1.234375 -2.734375 1.28125 -2.847656 1.28125 -2.984375 L 1.28125 -6.015625 L 3.640625 -6.015625 L 3.640625 -2.828125 C 3.640625 -2.316406 3.515625 -1.84375 3.265625 -1.40625 C 3.015625 -0.976562 2.675781 -0.632812 2.25 -0.375 C 1.820312 -0.125 1.347656 0 0.828125 0 Z M 0 0 "/></g></g></g><g fill="#373737" fill-opacity="1"><g transform="translate(61.11075, 26.250001)"><g><path d="M 0.546875 -9.765625 L 2.90625 -9.765625 L 2.90625 0 L 0.546875 0 Z M 0.546875 -9.765625 "/></g></g></g><g fill="#373737" fill-opacity="1"><g transform="translate(64.521318, 26.250001)"><g><path d="M 4.25 -2.5 C 4.414062 -2.5 4.546875 -2.539062 4.640625 -2.625 C 4.734375 -2.707031 4.78125 -2.820312 4.78125 -2.96875 C 4.78125 -3.070312 4.742188 -3.164062 4.671875 -3.25 C 4.597656 -3.332031 4.457031 -3.441406 4.25 -3.578125 L 1.125 -5.734375 L 2.46875 -7.671875 L 5.984375 -5.25 C 6.359375 -4.945312 6.644531 -4.625 6.84375 -4.28125 C 7.039062 -3.945312 7.140625 -3.535156 7.140625 -3.046875 C 7.140625 -2.460938 7 -1.941406 6.71875 -1.484375 C 6.445312 -1.023438 6.070312 -0.660156 5.59375 -0.390625 C 5.125 -0.128906 4.601562 0 4.03125 0 L 0.53125 0 L 0.53125 -2.5 Z M 4.25 -2.5 "/></g></g></g><g fill="#373737" fill-opacity="1"><g transform="translate(5.695312, 43.5)"><g><path d="M 11.203125 -2.5 C 11.304688 -2.5 11.359375 -2.445312 11.359375 -2.34375 L 11.359375 -0.140625 C 11.359375 -0.046875 11.304688 0 11.203125 0 L 10.703125 0 C 10.742188 0.15625 10.765625 0.335938 10.765625 0.546875 C 10.765625 1.109375 10.625 1.617188 10.34375 2.078125 C 10.070312 2.535156 9.703125 2.898438 9.234375 3.171875 C 8.765625 3.453125 8.25 3.59375 7.6875 3.59375 L 4.34375 3.59375 C 3.65625 3.59375 3.019531 3.421875 2.4375 3.078125 C 1.851562 2.734375 1.390625 2.269531 1.046875 1.6875 C 0.710938 1.113281 0.546875 0.476562 0.546875 -0.21875 L 0.546875 -3.859375 L 2.90625 -3.859375 L 2.90625 -0.328125 C 2.90625 0.0664062 3.046875 0.398438 3.328125 0.671875 C 3.617188 0.953125 3.957031 1.09375 4.34375 1.09375 L 7.734375 1.09375 C 7.890625 1.09375 8.019531 1.035156 8.125 0.921875 C 8.238281 0.816406 8.296875 0.691406 8.296875 0.546875 C 8.296875 0.390625 8.238281 0.257812 8.125 0.15625 C 8.019531 0.0507812 7.890625 0 7.734375 0 L 4.671875 0 L 4.671875 -2.5 Z M 11.203125 -2.5 "/></g></g></g><g fill="#373737" fill-opacity="1"><g transform="translate(16.891193, 43.5)"><g><path d="M 0 0 C -0.09375 0 -0.140625 -0.046875 -0.140625 -0.140625 L -0.140625 -2.34375 C -0.140625 -2.445312 -0.09375 -2.5 0 -2.5 L 1.734375 -2.5 C 1.859375 -2.5 1.960938 -2.546875 2.046875 -2.640625 C 2.140625 -2.734375 2.1875 -2.847656 2.1875 -2.984375 L 2.1875 -6.015625 L 4.546875 -6.015625 L 4.546875 -2.828125 C 4.546875 -2.316406 4.421875 -1.84375 4.171875 -1.40625 C 3.921875 -0.976562 3.582031 -0.632812 3.15625 -0.375 C 2.726562 -0.125 2.257812 0 1.75 0 Z M 0.015625 1.203125 L 2.0625 1.203125 L 2.0625 3.234375 L 0.015625 3.234375 Z M 2.8125 1.203125 L 4.84375 1.203125 L 4.84375 3.234375 L 2.8125 3.234375 Z M 2.8125 1.203125 "/></g></g></g><g fill="#373737" fill-opacity="1"><g transform="translate(21.913512, 43.5)"><g><path d="M 3.359375 0 C 2.835938 0 2.363281 -0.125 1.9375 -0.375 C 1.507812 -0.632812 1.171875 -0.976562 0.921875 -1.40625 C 0.671875 -1.84375 0.546875 -2.316406 0.546875 -2.828125 L 0.546875 -9.765625 L 2.90625 -9.765625 L 2.90625 -2.984375 C 2.90625 -2.835938 2.953125 -2.71875 3.046875 -2.625 C 3.140625 -2.539062 3.253906 -2.5 3.390625 -2.5 L 4.203125 -2.5 C 4.296875 -2.5 4.34375 -2.445312 4.34375 -2.34375 L 4.34375 -0.140625 C 4.34375 -0.046875 4.296875 0 4.203125 0 Z M 3.359375 0 "/></g></g></g><g fill="#373737" fill-opacity="1"><g transform="translate(26.115565, 43.5)"><g><path d="M 0 0 C -0.09375 0 -0.140625 -0.046875 -0.140625 -0.140625 L -0.140625 -2.34375 C -0.140625 -2.445312 -0.09375 -2.5 0 -2.5 L 0.59375 -2.5 C 0.75 -2.5 0.867188 -2.539062 0.953125 -2.625 C 1.035156 -2.71875 1.078125 -2.835938 1.078125 -2.984375 L 1.078125 -5.625 L 3.4375 -5.625 L 3.4375 -2.984375 C 3.4375 -2.835938 3.476562 -2.71875 3.5625 -2.625 C 3.65625 -2.539062 3.773438 -2.5 3.921875 -2.5 L 4.515625 -2.5 C 4.609375 -2.5 4.65625 -2.445312 4.65625 -2.34375 L 4.65625 -0.140625 C 4.65625 -0.046875 4.609375 0 4.515625 0 L 3.921875 0 C 3.234375 0 2.679688 -0.195312 2.265625 -0.59375 C 1.816406 -0.195312 1.257812 0 0.59375 0 Z M 1.296875 1.1875 L 3.34375 1.1875 L 3.34375 3.21875 L 1.296875 3.21875 Z M 1.296875 1.1875 "/></g></g></g><g fill="#373737" fill-opacity="1"><g transform="translate(30.619822, 43.5)"><g><path d="M 5.8125 -6.671875 C 6.40625 -6.671875 6.953125 -6.519531 7.453125 -6.21875 C 7.960938 -5.914062 8.367188 -5.503906 8.671875 -4.984375 C 8.972656 -4.472656 9.125 -3.921875 9.125 -3.328125 C 9.125 -2.734375 8.972656 -2.179688 8.671875 -1.671875 C 8.367188 -1.160156 7.960938 -0.753906 7.453125 -0.453125 C 6.941406 -0.148438 6.394531 0 5.8125 0 L 0 0 C -0.09375 0 -0.140625 -0.046875 -0.140625 -0.140625 L -0.140625 -2.34375 C -0.140625 -2.445312 -0.09375 -2.5 0 -2.5 L 1.09375 -2.5 L 0.5 -4.03125 L 1.5625 -4.65625 L 1.46875 -4.609375 C 1.632812 -4.703125 1.742188 -4.84375 1.796875 -5.03125 C 1.847656 -5.226562 1.875 -5.472656 1.875 -5.765625 L 1.875 -9.765625 L 4.234375 -9.765625 L 4.234375 -7.78125 C 4.234375 -7.332031 4.210938 -6.972656 4.171875 -6.703125 C 4.128906 -6.429688 4.050781 -6.222656 3.9375 -6.078125 C 4.289062 -6.273438 4.597656 -6.421875 4.859375 -6.515625 C 5.128906 -6.617188 5.445312 -6.671875 5.8125 -6.671875 Z M 5.8125 -2.5 C 6.0625 -2.5 6.269531 -2.582031 6.4375 -2.75 C 6.601562 -2.925781 6.6875 -3.132812 6.6875 -3.375 C 6.6875 -3.644531 6.601562 -3.867188 6.4375 -4.046875 C 6.269531 -4.234375 6.046875 -4.328125 5.765625 -4.328125 C 5.640625 -4.328125 5.492188 -4.289062 5.328125 -4.21875 C 5.160156 -4.15625 4.945312 -4.035156 4.6875 -3.859375 L 2.375 -2.5 Z M 5.8125 -2.5 "/></g></g></g><g fill="#373737" fill-opacity="1"><g transform="translate(40.10322, 43.5)"><g><path d="M 3.359375 0 C 2.835938 0 2.363281 -0.125 1.9375 -0.375 C 1.507812 -0.632812 1.171875 -0.976562 0.921875 -1.40625 C 0.671875 -1.84375 0.546875 -2.316406 0.546875 -2.828125 L 0.546875 -9.765625 L 2.90625 -9.765625 L 2.90625 -2.984375 C 2.90625 -2.835938 2.953125 -2.71875 3.046875 -2.625 C 3.140625 -2.539062 3.253906 -2.5 3.390625 -2.5 L 4.203125 -2.5 C 4.296875 -2.5 4.34375 -2.445312 4.34375 -2.34375 L 4.34375 -0.140625 C 4.34375 -0.046875 4.296875 0 4.203125 0 Z M 3.359375 0 "/></g></g></g><g fill="#373737" fill-opacity="1"><g transform="translate(44.305273, 43.5)"><g><path d="M 0 0 C -0.09375 0 -0.140625 -0.046875 -0.140625 -0.140625 L -0.140625 -2.34375 C -0.140625 -2.445312 -0.09375 -2.5 0 -2.5 L 0.59375 -2.5 C 0.75 -2.5 0.867188 -2.539062 0.953125 -2.625 C 1.035156 -2.71875 1.078125 -2.835938 1.078125 -2.984375 L 1.078125 -5.625 L 3.4375 -5.625 L 3.4375 -2.984375 C 3.4375 -2.835938 3.476562 -2.71875 3.5625 -2.625 C 3.65625 -2.539062 3.773438 -2.5 3.921875 -2.5 L 4.515625 -2.5 C 4.609375 -2.5 4.65625 -2.445312 4.65625 -2.34375 L 4.65625 -0.140625 C 4.65625 -0.046875 4.609375 0 4.515625 0 L 3.921875 0 C 3.234375 0 2.679688 -0.195312 2.265625 -0.59375 C 1.816406 -0.195312 1.257812 0 0.59375 0 Z M 1.296875 1.1875 L 3.34375 1.1875 L 3.34375 3.21875 L 1.296875 3.21875 Z M 1.296875 1.1875 "/></g></g></g><g fill="#373737" fill-opacity="1"><g transform="translate(48.80953, 43.5)"><g><path d="M 5.8125 -6.671875 C 6.40625 -6.671875 6.953125 -6.519531 7.453125 -6.21875 C 7.960938 -5.914062 8.367188 -5.503906 8.671875 -4.984375 C 8.972656 -4.472656 9.125 -3.921875 9.125 -3.328125 C 9.125 -2.734375 8.972656 -2.179688 8.671875 -1.671875 C 8.367188 -1.160156 7.960938 -0.753906 7.453125 -0.453125 C 6.941406 -0.148438 6.394531 0 5.8125 0 L 0 0 C -0.09375 0 -0.140625 -0.046875 -0.140625 -0.140625 L -0.140625 -2.34375 C -0.140625 -2.445312 -0.09375 -2.5 0 -2.5 L 1.09375 -2.5 L 0.5 -4.03125 L 1.5625 -4.65625 L 1.46875 -4.609375 C 1.632812 -4.703125 1.742188 -4.84375 1.796875 -5.03125 C 1.847656 -5.226562 1.875 -5.472656 1.875 -5.765625 L 1.875 -9.765625 L 4.234375 -9.765625 L 4.234375 -7.78125 C 4.234375 -7.332031 4.210938 -6.972656 4.171875 -6.703125 C 4.128906 -6.429688 4.050781 -6.222656 3.9375 -6.078125 C 4.289062 -6.273438 4.597656 -6.421875 4.859375 -6.515625 C 5.128906 -6.617188 5.445312 -6.671875 5.8125 -6.671875 Z M 5.8125 -2.5 C 6.0625 -2.5 6.269531 -2.582031 6.4375 -2.75 C 6.601562 -2.925781 6.6875 -3.132812 6.6875 -3.375 C 6.6875 -3.644531 6.601562 -3.867188 6.4375 -4.046875 C 6.269531 -4.234375 6.046875 -4.328125 5.765625 -4.328125 C 5.640625 -4.328125 5.492188 -4.289062 5.328125 -4.21875 C 5.160156 -4.15625 4.945312 -4.035156 4.6875 -3.859375 L 2.375 -2.5 Z M 5.8125 -2.5 "/></g></g></g><g fill="#373737" fill-opacity="1"><g transform="translate(58.292928, 43.5)"><g/></g></g><g fill="#373737" fill-opacity="1"><g transform="translate(60.609807, 43.5)"><g><path d="M 7.953125 -2.5 C 8.046875 -2.5 8.09375 -2.445312 8.09375 -2.34375 L 8.09375 -0.140625 C 8.09375 -0.046875 8.046875 0 7.953125 0 L 7.34375 0 C 6.9375 0 6.570312 -0.078125 6.25 -0.234375 C 5.925781 -0.390625 5.65625 -0.613281 5.4375 -0.90625 C 4.9375 -0.59375 4.382812 -0.4375 3.78125 -0.4375 C 3.1875 -0.4375 2.640625 -0.582031 2.140625 -0.875 C 1.640625 -1.164062 1.238281 -1.5625 0.9375 -2.0625 C 0.632812 -2.570312 0.484375 -3.117188 0.484375 -3.703125 C 0.484375 -4.273438 0.628906 -4.796875 0.921875 -5.265625 C 1.222656 -5.742188 1.625 -6.113281 2.125 -6.375 C 2.625 -6.644531 3.175781 -6.78125 3.78125 -6.78125 L 4.53125 -6.78125 L 4.53125 -7.765625 L 6.875 -7.765625 L 6.875 -2.984375 C 6.875 -2.835938 6.914062 -2.71875 7 -2.625 C 7.082031 -2.539062 7.195312 -2.5 7.34375 -2.5 Z M 4.53125 -4.4375 L 3.78125 -4.4375 C 3.550781 -4.4375 3.363281 -4.363281 3.21875 -4.21875 C 3.070312 -4.082031 3 -3.910156 3 -3.703125 C 3 -3.484375 3.070312 -3.296875 3.21875 -3.140625 C 3.363281 -2.992188 3.550781 -2.921875 3.78125 -2.921875 C 4.007812 -2.921875 4.191406 -2.992188 4.328125 -3.140625 C 4.460938 -3.285156 4.53125 -3.472656 4.53125 -3.703125 Z M 4.53125 -4.4375 "/></g></g></g><g fill="#373737" fill-opacity="1"><g transform="translate(68.553414, 43.5)"><g><path d="M 4.5625 -6.34375 C 5.15625 -6.34375 5.703125 -6.207031 6.203125 -5.9375 C 6.703125 -5.664062 7.097656 -5.296875 7.390625 -4.828125 C 7.691406 -4.359375 7.84375 -3.828125 7.84375 -3.234375 C 7.84375 -2.648438 7.691406 -2.101562 7.390625 -1.59375 C 7.097656 -1.09375 6.703125 -0.695312 6.203125 -0.40625 C 5.703125 -0.113281 5.15625 0.03125 4.5625 0.03125 C 3.820312 0.03125 3.175781 -0.195312 2.625 -0.65625 C 2.226562 -0.21875 1.6875 0 1 0 L 0 0 C -0.09375 0 -0.140625 -0.046875 -0.140625 -0.140625 L -0.140625 -2.34375 C -0.140625 -2.445312 -0.09375 -2.5 0 -2.5 L 1 -2.5 C 1.132812 -2.5 1.242188 -2.539062 1.328125 -2.625 C 1.421875 -2.71875 1.46875 -2.835938 1.46875 -2.984375 L 1.46875 -3.96875 L 0.5625 -3.96875 L 0.5625 -6.34375 Z M 4.5625 -2.46875 C 4.789062 -2.46875 4.976562 -2.539062 5.125 -2.6875 C 5.269531 -2.832031 5.34375 -3.015625 5.34375 -3.234375 C 5.34375 -3.460938 5.269531 -3.640625 5.125 -3.765625 C 4.976562 -3.898438 4.789062 -3.96875 4.5625 -3.96875 L 3.796875 -3.96875 L 3.796875 -3.234375 C 3.796875 -3.015625 3.867188 -2.832031 4.015625 -2.6875 C 4.160156 -2.539062 4.34375 -2.46875 4.5625 -2.46875 Z M 4.5625 -2.46875 "/></g></g></g><g fill="#373737" fill-opacity="1"><g transform="translate(76.741662, 43.5)"><g><path d="M 0.5625 -9.125 L 2.84375 -9.71875 L 4.34375 -3.46875 L 2.078125 -2.859375 Z M 4.703125 -2.5 C 4.835938 -2.5 4.945312 -2.539062 5.03125 -2.625 C 5.125 -2.71875 5.171875 -2.835938 5.171875 -2.984375 L 5.171875 -9.703125 L 7.53125 -9.703125 L 7.53125 -2.984375 C 7.53125 -2.835938 7.570312 -2.71875 7.65625 -2.625 C 7.75 -2.539062 7.875 -2.5 8.03125 -2.5 L 8.609375 -2.5 C 8.710938 -2.5 8.765625 -2.445312 8.765625 -2.34375 L 8.765625 -0.140625 C 8.765625 -0.046875 8.710938 0 8.609375 0 L 8.03125 0 C 7.3125 0 6.753906 -0.234375 6.359375 -0.703125 C 5.953125 -0.234375 5.398438 0 4.703125 0 L 0.578125 0 L 0.578125 -2.5 Z M 4.703125 -2.5 "/></g></g></g><g fill="#373737" fill-opacity="1"><g transform="translate(85.347229, 43.5)"><g><path d="M 6.265625 -2.5 L 6.265625 0 L 0 0 C -0.09375 0 -0.140625 -0.046875 -0.140625 -0.140625 L -0.140625 -2.34375 C -0.140625 -2.445312 -0.09375 -2.5 0 -2.5 L 0.90625 -2.5 C 0.800781 -2.789062 0.75 -3.101562 0.75 -3.4375 C 0.75 -4.0625 0.90625 -4.625 1.21875 -5.125 C 1.53125 -5.625 1.953125 -6.015625 2.484375 -6.296875 C 3.015625 -6.585938 3.601562 -6.734375 4.25 -6.734375 L 5.828125 -6.734375 L 5.828125 -4.421875 L 4.25 -4.421875 C 3.945312 -4.421875 3.703125 -4.332031 3.515625 -4.15625 C 3.328125 -3.976562 3.234375 -3.742188 3.234375 -3.453125 C 3.234375 -3.160156 3.320312 -2.925781 3.5 -2.75 C 3.6875 -2.582031 3.9375 -2.5 4.25 -2.5 Z M 6.265625 -2.5 "/></g></g></g></svg>